<?xml version="1.0" standalone="no"?>
<!DOCTYPE svg PUBLIC "-//W3C//DTD SVG 20010904//EN"
 "http://www.w3.org/TR/2001/REC-SVG-20010904/DTD/svg10.dtd">
<svg version="1.0" xmlns="http://www.w3.org/2000/svg"
 width="732.000000pt" height="745.000000pt" viewBox="0 0 732.000000 745.000000"
 preserveAspectRatio="xMidYMid meet">

<g transform="translate(0.000000,745.000000) scale(0.100000,-0.100000)"
fill="#000000" stroke="none">
<path d="M657 6455 c-250 -69 -416 -355 -356 -615 22 -99 2 -69 1045 -1530
140 -195 265 -368 279 -385 l24 -30 1 350 c0 278 3 363 15 408 39 152 126 248
277 310 l53 22 2195 5 c2448 6 2231 -1 2385 75 268 132 410 417 374 750 -33
308 -207 529 -494 629 l-60 21 -2845 2 c-2339 1 -2854 -1 -2893 -12z"/>
<path d="M2255 4310 c-111 -43 -178 -97 -245 -197 -73 -109 -95 -189 -94 -338
1 -183 29 -268 142 -430 31 -44 223 -314 427 -600 204 -286 424 -596 490 -690
65 -93 129 -183 142 -198 l23 -29 1 179 c1 347 14 594 34 643 47 118 134 204
254 252 l56 23 1015 5 c946 5 1019 7 1070 24 142 47 280 149 356 263 21 32 54
103 73 158 35 98 36 103 36 260 0 150 -2 166 -29 248 -58 179 -166 304 -334
387 -129 64 -21 60 -1773 60 -1548 -1 -1595 -1 -1644 -20z"/>
<path d="M3470 1720 c-236 -37 -436 -218 -496 -451 -20 -77 -22 -214 -5 -289
19 -83 85 -209 142 -273 66 -74 177 -147 270 -178 60 -19 94 -24 184 -24 134
0 210 23 318 95 188 127 278 287 279 495 0 236 -105 424 -305 548 -109 67
-260 97 -387 77z"/>
</g>
</svg>
