<?xml version="1.0" encoding="UTF-8"?>
<svg version="1.1" xmlns="http://www.w3.org/2000/svg" width="500" height="500">
<path d="M0 0 C74.60269435 0 74.60269435 0 88.8125 13.25 C97.44438852 22.32415843 100.3977569 33.11159755 100.3125 45.375 C100.30512817 46.62953979 100.30512817 46.62953979 100.29760742 47.90942383 C100.11157432 57.71193717 97.73313571 65.03923024 92 73 C91.29875 74.010625 90.5975 75.02125 89.875 76.0625 C85.76259309 80.87573509 79.60846448 84.19576776 74 87 C74.61329578 91.26053225 76.11029696 94.46186725 78.140625 98.2421875 C78.45948166 98.83928528 78.77833832 99.43638306 79.1068573 100.05157471 C80.1480297 101.99631051 81.19879376 103.93567235 82.25 105.875 C82.97176878 107.21840826 83.69320146 108.56199714 84.41430664 109.90576172 C89.49765913 119.35055039 94.71800643 128.71362397 100.10058594 137.99169922 C100.60235352 138.8632666 101.10412109 139.73483398 101.62109375 140.6328125 C102.0586499 141.38449707 102.49620605 142.13618164 102.94702148 142.91064453 C103.97135523 144.94316208 104.54774843 146.77677023 105 149 C102.11987347 149.24453905 99.260522 149.42157916 96.375 149.5625 C95.56675781 149.63791016 94.75851562 149.71332031 93.92578125 149.79101562 C91.36497498 149.88470366 89.44314157 149.78886781 87 149 C84.271146 146.39390935 82.70793346 143.33675693 81 140 C80.51031738 139.09918701 80.02063477 138.19837402 79.51611328 137.27026367 C77.92713186 134.30435169 76.39671279 131.31344062 74.875 128.3125 C69.94543167 118.69269068 64.87383063 109.16931098 59.60693359 99.72973633 C59.1320752 98.8714624 58.6572168 98.01318848 58.16796875 97.12890625 C57.74797607 96.37681885 57.3279834 95.62473145 56.89526367 94.84985352 C56 93 56 93 56 91 C43.13 91 30.26 91 17 91 C16.67 110.14 16.34 129.28 16 149 C10.72 149 5.44 149 0 149 C0 99.83 0 50.66 0 0 Z M16 15 C15.90094848 16.83572631 15.87200793 18.67527575 15.87060547 20.51367188 C15.86745331 21.69159302 15.86430115 22.86951416 15.86105347 24.08312988 C15.8630777 25.36538452 15.86510193 26.64763916 15.8671875 27.96875 C15.86623077 29.27453003 15.86527405 30.58031006 15.86428833 31.92565918 C15.86281167 34.69312722 15.86496489 37.46056304 15.86962891 40.22802734 C15.87532619 43.78262649 15.87204702 47.33715014 15.86605644 50.89174652 C15.86158253 54.27158714 15.86471114 57.65140723 15.8671875 61.03125 C15.86516327 62.31350464 15.86313904 63.59575928 15.86105347 64.91687012 C15.86420563 66.09479126 15.86735779 67.2727124 15.87060547 68.48632812 C15.87140106 69.52921997 15.87219666 70.57211182 15.87301636 71.64660645 C15.73494593 73.95760635 15.73494593 73.95760635 17 75 C20.11939304 75.1387971 23.21490506 75.21329705 26.3359375 75.23828125 C27.75962143 75.25038887 27.75962143 75.25038887 29.21206665 75.26274109 C31.23136558 75.27660959 33.25068822 75.28731929 35.27001953 75.29516602 C38.32761966 75.31223549 41.38409767 75.35607822 44.44140625 75.40039062 C56.71952798 75.4991007 66.45735636 74.88148305 77 68 C78.83480079 65.457592 78.83480079 65.457592 80.25 62.5625 C80.75015625 61.61503906 81.2503125 60.66757813 81.765625 59.69140625 C85.25872611 52.07511934 85.23996782 42.03696774 83.24609375 33.9375 C82.30452073 31.51525725 81.24598722 29.2785011 80 27 C79.46375 25.906875 78.9275 24.81375 78.375 23.6875 C72.84918747 17.43460687 63.91115281 14.46857612 55.71127319 13.818573 C53.23360964 13.75421271 50.76355791 13.74863889 48.28515625 13.76953125 C46.94063637 13.77021858 46.94063637 13.77021858 45.56895447 13.7709198 C43.69073142 13.77392151 41.81251039 13.78174473 39.93432617 13.79418945 C37.04662374 13.81260123 34.15923975 13.81469779 31.27148438 13.81445312 C29.44270554 13.81936326 27.61392888 13.82518936 25.78515625 13.83203125 C24.91858902 13.83314407 24.05202179 13.8342569 23.15919495 13.83540344 C19.26654694 13.48253881 19.26654694 13.48253881 16 15 Z " fill="#FEFEFE" transform="translate(269,176)"/>
<path d="M0 0 C73.85 0 73.85 0 89.0546875 13.875 C98.39872295 23.49975755 100.29484944 35.74110276 100.31689453 48.55419922 C100.11301449 61.76612907 95.6166593 72.11808279 86.6875 81.75 C75.66241632 92.19481612 61.23894204 94.01715344 46.6875 94.31640625 C45.92888672 94.33505737 45.17027344 94.3537085 44.38867188 94.3729248 C41.59255054 94.4405052 38.79626405 94.50110796 36 94.5625 C29.73 94.706875 23.46 94.85125 17 95 C16.67 112.82 16.34 130.64 16 149 C10.72 149 5.44 149 0 149 C0 99.83 0 50.66 0 0 Z M16 15 C15.90069467 16.98887494 15.87200538 18.98130417 15.87060547 20.97265625 C15.86745331 22.25068115 15.86430115 23.52870605 15.86105347 24.84545898 C15.86284325 26.25113967 15.8648942 27.65682005 15.8671875 29.0625 C15.86651442 30.49357113 15.86554436 31.92464215 15.86428833 33.35571289 C15.86281156 36.35857224 15.86496524 39.3614019 15.86962891 42.36425781 C15.87532619 46.22152571 15.87204708 50.07872404 15.86605644 53.93598938 C15.86245026 56.89213591 15.86358968 59.84826583 15.86618423 62.80441284 C15.86685335 64.22704069 15.86602563 65.64967003 15.86370468 67.07229614 C15.86117726 69.05731174 15.86570958 71.04233259 15.87060547 73.02734375 C15.87140106 74.15906006 15.87219666 75.29077637 15.87301636 76.45678711 C15.71166018 78.93531511 15.71166018 78.93531511 17 80 C19.44179727 80.11368305 21.85411189 80.16419135 24.296875 80.16796875 C25.04148987 80.17129715 25.78610474 80.17462555 26.55328369 80.17805481 C28.14049664 80.18313394 29.72772034 80.18546283 31.31494141 80.18530273 C33.69843383 80.18745347 36.08143561 80.20549644 38.46484375 80.22460938 C58.44174393 80.42078685 58.44174393 80.42078685 75.7421875 71.50390625 C83.0824783 63.889724 84.58202618 54.38444017 84.47705078 44.21411133 C84.23828067 38.20506354 82.95758702 33.27847127 80 28 C79.4225 26.906875 78.845 25.81375 78.25 24.6875 C72.61396893 17.955574 64.16295935 14.66598502 55.5385437 13.73400879 C53.05010479 13.64105806 50.57968801 13.63536802 48.08984375 13.671875 C47.19632706 13.67374817 46.30281036 13.67562134 45.38221741 13.67755127 C43.51592206 13.68421453 41.64963929 13.69801273 39.78344727 13.71875 C36.91344373 13.75026415 34.04398857 13.75976404 31.17382812 13.765625 C29.35415989 13.77478217 27.53449727 13.7851538 25.71484375 13.796875 C24.42440407 13.80324982 24.42440407 13.80324982 23.1078949 13.80975342 C19.24174882 13.47976694 19.24174882 13.47976694 16 15 Z " fill="#FFFFFF" transform="translate(137,176)"/>
<path d="M0 0 C12.53578704 -0.06978686 25.07152716 -0.12295622 37.60746956 -0.15543652 C43.42962678 -0.17103247 49.25165022 -0.19215893 55.07373047 -0.22631836 C60.70179417 -0.25912943 66.32972989 -0.27689856 71.95788193 -0.28463173 C74.095468 -0.29013643 76.23304779 -0.30088475 78.37057877 -0.31719017 C102.6749076 -0.49506259 121.83678595 3.4374655 140.125 20.625 C150.95776313 31.87175408 159.19112773 46.31715845 159.09765625 62.30078125 C159.09443359 63.27724609 159.09121094 64.25371094 159.08789062 65.25976562 C159.07951172 66.26716797 159.07113281 67.27457031 159.0625 68.3125 C159.05798828 69.33923828 159.05347656 70.36597656 159.04882812 71.42382812 C159.03708184 73.94927882 159.02065565 76.47460905 159 79 C156.03 79 153.06 79 150 79 C149.91363281 77.58589844 149.82726562 76.17179687 149.73828125 74.71484375 C148.45030854 56.29278383 145.18836339 38.80385755 130.9921875 25.6171875 C118.52686681 15.49828011 105.10908822 10.8957515 89.23095703 10.79467773 C88.26447739 10.78477814 87.29799774 10.77487854 86.30223083 10.76467896 C83.12078263 10.73319541 79.93931951 10.70835864 76.7578125 10.68359375 C74.54677959 10.66301287 72.33575052 10.6420161 70.12472534 10.62062073 C64.31497306 10.56551722 58.50518597 10.51605636 52.69537354 10.46777344 C46.76303013 10.4174727 40.83073707 10.36183143 34.8984375 10.30664062 C23.26566805 10.19920246 11.63285481 10.0977258 0 10 C0 6.7 0 3.4 0 0 Z " fill="#32F66E" transform="translate(286,45)"/>
<path d="M0 0 C2.97 0 5.94 0 9 0 C9.59173586 22.17913653 6.25257824 37.98958916 -9 55 C-9.54140625 55.63550781 -10.0828125 56.27101563 -10.640625 56.92578125 C-21.24083833 68.56995498 -36.57270184 75.20805092 -52 77 C-55.26441634 77.13193221 -58.52407 77.12670383 -61.79077148 77.11352539 C-62.74764359 77.11367142 -63.70451569 77.11381744 -64.69038391 77.1139679 C-67.83397741 77.11327462 -70.97751068 77.10550971 -74.12109375 77.09765625 C-76.30827299 77.09578999 -78.49545264 77.09436707 -80.68263245 77.09336853 C-86.42500981 77.08955973 -92.16736168 77.07974346 -97.909729 77.06866455 C-103.77510229 77.05841519 -109.64047971 77.05386337 -115.50585938 77.04882812 C-127.00391742 77.03811968 -138.50195659 77.02106297 -150 77 C-150 73.7 -150 70.4 -150 67 C-148.7863678 66.99413376 -147.5727356 66.98826752 -146.32232666 66.98222351 C-134.84734353 66.92484328 -123.37254713 66.85200226 -111.89775467 66.76428509 C-105.9993961 66.71968588 -100.10110494 66.68040687 -94.20263672 66.65356445 C-88.50313192 66.62742709 -82.803888 66.58695139 -77.10454559 66.53681374 C-74.93744926 66.52021536 -72.77030787 66.50865756 -70.60315704 66.50238609 C-49.63108532 66.43559242 -32.07149689 63.89483495 -16.3359375 48.59765625 C-4.01313126 34.89420115 -0.97161204 17.74470415 0 0 Z " fill="#32F66E" transform="translate(436,376)"/>
</svg>
